<svg width="150" height="142" viewBox="0 0 150 142" fill="none" xmlns="http://www.w3.org/2000/svg">
<path fill-rule="evenodd" clip-rule="evenodd" d="M110.839 63.1127H147.803V75.9535C147.803 79.1284 145.212 81.7215 142.039 81.7215H128.744L120.813 85.7275L110.839 81.7215V63.1127Z" fill="#FFE07D"/>
<path fill-rule="evenodd" clip-rule="evenodd" d="M110.839 81.7215H128.744V89.958C128.744 91.9361 127.124 93.5483 125.156 93.5483H66.8604C66.8604 88.3704 66.8604 85.7358 70.8216 85.7358L78.711 85.7275C83.6771 85.7193 86.9326 84.4476 88.7513 81.7215H110.839Z" fill="#6F6571"/>
<path fill-rule="evenodd" clip-rule="evenodd" d="M73.8916 93.5483H125.156C128.162 98.7846 130.579 105.076 128.495 117.111C125.006 105.242 89.5792 109.979 85.9417 123.677H46.8518C45.3735 120.327 43.9784 117.019 42.7576 113.678H53.7779C76.0672 105.267 68.9003 109.016 73.8916 93.5483Z" fill="#FFE07D"/>
<path fill-rule="evenodd" clip-rule="evenodd" d="M70.7276 61.3757C71.4917 65.3984 72.5297 69.3629 73.6925 72.7373L84.9612 77.1523L97.5267 72.737C97.0866 48.9585 88.2006 37.5553 80.6435 33.8653C77.9194 31.7911 75.1292 31.0101 75.1292 31.0101C75.1292 31.0101 71.4586 36.8823 71.2676 36.8823C69.8558 40.24 69.3243 44.6202 69.4157 49.3493L70.7276 61.3757Z" fill="#ECEAEC"/>
<path fill-rule="evenodd" clip-rule="evenodd" d="M97.5266 72.737H73.6925C68.2031 73.3355 61.4514 77.5159 61.4514 90.4648V104.037H73.8917V93.5483C73.8917 88.3704 73.8917 85.7357 77.8529 85.7357L85.7423 85.7275C90.7084 85.7193 93.9639 84.4476 95.7826 81.7215C97.1859 79.6188 97.7259 76.6516 97.5266 72.737Z" fill="#FF8086"/>
<path fill-rule="evenodd" clip-rule="evenodd" d="M97.5267 72.737C97.0866 48.9585 88.2006 37.5553 80.6435 33.8653C79.5223 34.6549 78.2766 35.3032 76.9064 35.7852C83.5998 40.8468 90.31 52.1583 90.692 72.737H97.5267Z" fill="#DAD8DB"/>
<path fill-rule="evenodd" clip-rule="evenodd" d="M97.5267 72.737H90.692C90.8912 76.6516 90.3516 79.6188 88.948 81.7215C87.8019 83.4418 86.0745 84.8964 83.7076 85.7275H85.7423C90.7084 85.7193 93.9639 84.4476 95.7826 81.7215C97.186 79.6188 97.7259 76.6516 97.5267 72.737Z" fill="#F76672"/>
<path fill-rule="evenodd" clip-rule="evenodd" d="M116.602 44.4787H142.039C145.211 44.4787 147.802 47.0718 147.802 50.2467V59.7881H110.839V50.2467C110.839 47.0718 113.43 44.4787 116.602 44.4787Z" fill="#FFE07D"/>
<path fill-rule="evenodd" clip-rule="evenodd" d="M110.839 56.9123H147.803V65.98H110.839V56.9123Z" fill="#FF8086"/>
<path fill-rule="evenodd" clip-rule="evenodd" d="M140.088 56.9123H144.821H147.803V50.2467C147.803 48.0775 146.59 46.1826 144.821 45.2018C143.991 44.7447 143.044 44.4787 142.039 44.4787H134.324C137.497 44.4787 140.088 47.0718 140.088 50.2467V56.9123Z" fill="#FFC269"/>
<path fill-rule="evenodd" clip-rule="evenodd" d="M140.088 65.98H144.821H147.803V63.1127V59.7881V56.9123H144.821H140.088V59.7881V63.1127V65.98Z" fill="#F76672"/>
<path fill-rule="evenodd" clip-rule="evenodd" d="M140.088 65.98V75.9535C140.088 79.1284 137.497 81.7215 134.324 81.7215H142.039C143.044 81.7215 143.991 81.464 144.821 81.0066C146.59 80.0176 147.803 78.1227 147.803 75.9535V65.98H144.821H140.088Z" fill="#FFC269"/>
<path fill-rule="evenodd" clip-rule="evenodd" d="M85.9415 123.677C85.9415 111.385 95.6827 101.594 107.7 101.594C117.474 101.594 125.746 108.077 128.495 117.111C129.06 118.964 129.391 120.934 129.45 122.979C129.475 123.777 128.926 123.677 128.179 123.677C114.103 123.677 100.018 123.668 85.9415 123.677Z" fill="#FF8086"/>
<path fill-rule="evenodd" clip-rule="evenodd" d="M91.4144 123.677H124.533C124.06 132.603 116.827 139.701 107.974 139.701C99.121 139.701 91.8876 132.603 91.4144 123.677Z" fill="#6F6571"/>
<path fill-rule="evenodd" clip-rule="evenodd" d="M7.31339 120.145L35.8067 126.702C33.9961 134.573 26.1483 139.493 18.2839 137.681C10.4109 135.869 5.50313 128.015 7.31339 120.145Z" fill="#6F6571"/>
<path fill-rule="evenodd" clip-rule="evenodd" d="M5.17908 112.157C9.20681 106.298 16.1994 102.899 23.5075 103.63C36.3964 106.356 40.5902 114.061 41.429 123.668C41.4123 124.973 41.2711 126.286 40.9889 127.6C40.906 127.965 40.6649 127.816 40.2665 127.725L35.8069 126.702L7.31365 120.145L5.17937 119.654L2.19812 118.965C2.77087 116.454 3.80066 114.16 5.17908 112.157Z" fill="#ECEAEC"/>
<path fill-rule="evenodd" clip-rule="evenodd" d="M23.4826 103.597L34.9928 63.7693L40.1748 61.4504L45.9715 63.7693C38.356 84.88 40.4821 99.6157 45.6226 113.679C46.8516 117.02 48.2467 120.327 49.7168 123.677H41.4372L23.4826 103.597Z" fill="#FF8086"/>
<path fill-rule="evenodd" clip-rule="evenodd" d="M59.1261 19.1129L72.6293 16.2371C73.9995 16.3619 77.9195 19.6531 77.9195 21.7142L75.046 36.3254C73.8501 36.6828 72.5795 36.8823 71.2673 36.8823C64.0755 36.8823 58.2457 31.0397 58.2457 23.842C58.2457 22.1712 58.5531 20.5754 59.1261 19.1129Z" fill="#FFECE4"/>
<path fill-rule="evenodd" clip-rule="evenodd" d="M54.7661 19.1129C54.7661 9.82081 62.124 2.29913 71.2093 2.29913C80.2945 2.29913 87.6524 9.82081 87.6524 19.1129C87.6524 25.2465 85.161 30.6989 80.6435 33.8653C79.0324 35.0041 77.1554 35.8435 75.0463 36.3254V21.7142C75.0463 19.6528 73.9998 19.2374 72.6296 19.1126H59.1264H54.7661V19.1129Z" fill="#FF8086"/>
<path fill-rule="evenodd" clip-rule="evenodd" d="M62.6057 4.78409C65.1053 3.20499 68.0534 2.29913 71.2093 2.29913C80.2945 2.29913 87.6524 9.82081 87.6524 19.1129C87.6524 25.2465 85.161 30.6989 80.6434 33.8653C79.4974 34.6716 78.2267 35.3281 76.8316 35.8101C80.17 32.4274 81.9806 27.5735 81.9806 22.221C81.9806 12.5135 74.2822 4.64259 64.79 4.64259C64.0506 4.64288 63.3199 4.68448 62.6057 4.78409Z" fill="#F76672"/>
<path fill-rule="evenodd" clip-rule="evenodd" d="M61.4513 104.037H73.8917V111.875C73.8917 113.554 72.9782 113.678 71.6329 113.678H53.7779C53.4208 105.816 58.1792 104.037 61.4513 104.037Z" fill="#6F6571"/>
<path fill-rule="evenodd" clip-rule="evenodd" d="M45.6225 113.679C40.4821 99.6157 38.356 84.88 45.9714 63.7692H41.7029C41.6862 63.7692 41.6698 63.7692 41.6531 63.7692H40.1168C32.5013 84.88 34.6192 99.6157 39.7678 113.679C40.9886 117.02 42.3837 120.327 43.8621 123.677H46.8518H49.717C48.2469 120.327 46.8518 117.02 45.6225 113.679Z" fill="#F76672"/>
<path fill-rule="evenodd" clip-rule="evenodd" d="M41.4287 123.668L23.5072 103.63C21.6554 103.447 19.8199 103.522 18.051 103.846L35.2749 123.103C35.2582 124.225 35.1504 125.364 34.9345 126.503L35.8063 126.702L40.2659 127.724C40.6646 127.816 40.9055 127.965 40.9884 127.6C41.2711 126.286 41.4123 124.973 41.4287 123.668Z" fill="#DAD8DB"/>
<path fill-rule="evenodd" clip-rule="evenodd" d="M125.156 93.5483H73.8917V98.0612H116.013C119.442 98.0612 121.07 99.5407 122.407 102.541C123.562 105.143 123.586 105.99 124.11 109.132C126.078 111.417 127.589 114.127 128.495 117.111C130.579 105.076 128.162 98.7846 125.156 93.5483Z" fill="#FFC269"/>
<path fill-rule="evenodd" clip-rule="evenodd" d="M124.11 109.132C120.124 104.503 114.252 101.594 107.7 101.594C106.055 101.594 104.461 101.777 102.925 102.117C112.732 104.337 119.592 112.997 119.891 122.979C119.908 123.527 119.658 123.652 119.26 123.677H124.533H128.179C128.926 123.677 129.475 123.777 129.45 122.979C129.392 120.934 129.059 118.965 128.495 117.111C128.478 117.053 128.461 117.003 128.445 116.953C128.445 116.953 128.445 116.953 128.445 116.945C127.531 114.027 126.044 111.376 124.11 109.132Z" fill="#F76672"/>
<path fill-rule="evenodd" clip-rule="evenodd" d="M34.9345 126.503L7.31338 120.145C7.00605 121.45 6.89824 122.763 6.94804 124.043L28.8724 129.087L29.736 129.287C28.9222 132.861 26.8544 135.828 24.1055 137.831C29.7111 136.842 34.4531 132.603 35.8066 126.702L34.9345 126.503Z" fill="#5D5360"/>
<path fill-rule="evenodd" clip-rule="evenodd" d="M119.26 123.677H91.4142C91.5056 125.422 91.8627 127.101 92.4358 128.672H111.835H117.109C116.901 132.578 115.406 136.127 113.048 138.895C119.451 136.792 124.16 130.816 124.533 123.677H119.26Z" fill="#5D5360"/>
<path fill-rule="evenodd" clip-rule="evenodd" d="M128.744 89.958V81.7215H117.491V89.958C117.491 91.9361 115.871 93.5483 113.903 93.5483H125.156C127.124 93.5483 128.744 91.9361 128.744 89.958Z" fill="#5D5360"/>
<path fill-rule="evenodd" clip-rule="evenodd" d="M58.3122 22.4457H69.4072C70.7774 22.5705 71.8239 22.9942 71.8239 25.0555V36.8659C72.9366 36.8161 74.0162 36.6333 75.046 36.3257V21.7142C75.046 19.6528 73.9995 19.2374 72.6293 19.1126H59.1261C58.7191 20.16 58.4367 21.282 58.3122 22.4457Z" fill="#FFDDCE"/>
<path fill-rule="evenodd" clip-rule="evenodd" d="M32.5928 51.2275L48.1307 56.3639C48.8947 57.0453 48.031 63.9936 47.516 63.7692H34.9928H29.4536V52.3329C29.4536 50.0806 30.6246 50.5792 32.5928 51.2275Z" fill="#FFE07D"/>
<path fill-rule="evenodd" clip-rule="evenodd" d="M55.3723 63.7692H54.0686H47.5163C43.2976 63.7692 43.1731 56.7711 48.131 56.3639L55.3726 55.782L57.3158 59.8962L55.3723 63.7692Z" fill="#FFECE4"/>
<path fill-rule="evenodd" clip-rule="evenodd" d="M69.4154 49.349L72.0146 47.1134C78.5256 41.5033 86.7553 50.9697 78.0521 56.6214L70.7273 61.3754L67.04 63.769H55.3719V55.7817L62.6217 55.1917L69.4154 49.349Z" fill="#FF8086"/>
<path fill-rule="evenodd" clip-rule="evenodd" d="M55.3723 63.7692V59.8962H53.8193H52.9805H51.6683H45.1161C44.867 59.8962 44.6344 59.8795 44.4103 59.8297C44.1695 61.758 45.2573 63.7692 47.5163 63.7692H54.0686H55.3723Z" fill="#FFDDCE"/>
<path fill-rule="evenodd" clip-rule="evenodd" d="M78.0522 56.6214C83.3174 53.1972 82.3872 48.3848 79.3893 46.3569C79.6301 48.4347 78.6419 50.82 75.6522 52.7565L69.9469 56.455L68.3358 57.5105L64.6485 59.8959H55.3723V63.7689H67.0403L70.7276 61.3754L78.0522 56.6214Z" fill="#F76672"/>
<path fill-rule="evenodd" clip-rule="evenodd" d="M48.1306 56.3639L41.8772 54.3026C39.7845 56.5467 38.7712 60.9184 40.1168 63.769H45.9715H47.516C45.2572 63.769 44.1691 61.7577 44.4099 59.8294C44.6262 58.1592 45.8303 56.5549 48.1306 56.3639Z" fill="#FFC269"/>
<path d="M142.039 42.2814H116.602C112.213 42.2814 108.641 45.8545 108.641 50.2467V79.5242H99.1269C99.6557 77.6021 99.8517 75.3348 99.723 72.6963V72.696C99.5165 61.5459 97.4933 52.1486 93.709 44.7652C90.7705 39.0327 87.3413 35.5959 84.3987 33.5413C87.8525 29.9902 89.8494 24.9386 89.8494 19.1123C89.8494 8.62959 81.4872 0.101562 71.209 0.101562C60.9308 0.101562 52.5686 8.62959 52.5686 19.1123C52.5686 20.3261 53.5523 21.3096 54.7658 21.3096H56.2588C56.1214 22.1387 56.0481 22.9836 56.0481 23.8417C56.0481 31.2292 61.3269 37.4035 68.306 38.7872C67.5744 41.5036 67.2108 44.7066 67.2123 48.3453L61.732 53.0589L48.3976 54.1373L33.0158 49.0525C31.6061 48.5838 30.0082 48.0541 28.6219 49.0537C27.2558 50.0396 27.2558 51.7654 27.2558 52.3323V63.7684C27.2558 64.9821 28.2396 65.9656 29.453 65.9656H32.0689L28.0567 79.8301C27.7195 80.9955 28.391 82.2143 29.5567 82.5515C30.723 82.8904 31.9409 82.2172 32.2784 81.0518L36.6442 65.9656H42.8909C35.1214 89.6586 39.5546 105.474 46.3688 121.479H42.4189L25.9679 103.084L29.4466 91.0669C29.7841 89.9012 29.1126 88.6827 27.9469 88.3455C26.7812 88.0083 25.5627 88.6798 25.2252 89.8452L21.898 101.34C11.6071 101.169 2.40205 108.264 0.0562533 118.472C-0.215329 119.654 0.522659 120.833 1.70479 121.105L4.82403 121.823C4.02715 130.1 9.47783 137.909 17.7905 139.822C19.0529 140.113 20.3262 140.257 21.5906 140.257C24.709 140.257 27.7726 139.382 30.4822 137.684C33.6624 135.691 36.0319 132.762 37.3143 129.299L39.7755 129.866C40.5088 130.035 41.2043 130.121 41.8992 129.747C42.5458 129.399 42.9756 128.771 43.1367 128.061C43.2914 127.342 43.4092 126.611 43.4909 125.873H89.4454C90.9149 135.01 98.6889 141.898 107.973 141.898C117.258 141.898 125.032 135.01 126.502 125.873H128.179L128.372 125.875C128.44 125.876 128.511 125.877 128.587 125.877C129.215 125.877 130.123 125.807 130.868 125.049C131.241 124.67 131.679 123.991 131.645 122.913C131.583 120.849 131.274 118.856 130.745 116.961C132.495 106.335 130.811 99.8639 128.315 94.7993C129.893 93.7648 130.94 91.9824 130.94 89.9574V83.9185H142.038C146.428 83.9185 149.999 80.3454 149.999 75.9532V50.2464C150 45.8545 146.429 42.2814 142.039 42.2814ZM28.1487 133.961C25.3359 135.724 22.0078 136.284 18.777 135.54H18.7767C12.83 134.172 8.8626 128.719 9.15176 122.822L32.9856 128.308C31.9995 130.63 30.3311 132.593 28.1487 133.961ZM39.1433 125.211L4.96407 117.346C7.60166 110.123 14.6997 105.342 22.4584 105.753L39.2019 124.474C39.1872 124.721 39.1679 124.967 39.1433 125.211ZM72.3322 86.9217C71.6944 88.6039 71.6944 90.6778 71.6944 93.5486V101.84H63.6486V90.4648C63.6486 77.6041 70.6676 75.3122 73.8176 74.934H95.3593C95.2726 77.8528 94.614 79.9276 93.3636 81.2445C91.9063 82.7791 89.4129 83.5268 85.7402 83.5303L77.8532 83.5385C75.0407 83.5388 73.1833 84.6767 72.3322 86.9217ZM71.6944 106.234V111.481C71.6745 111.481 71.654 111.481 71.6329 111.481H56.0256C56.2011 109.854 56.7079 108.595 57.5402 107.723C58.7783 106.428 60.5221 106.234 61.4514 106.234H71.6944ZM95.2623 70.5397H75.2798C74.4773 68.0146 73.7619 65.2496 73.1736 62.4078L79.2489 58.4645C82.5653 56.3108 84.2906 53.2678 83.9824 50.1151C83.7094 47.3205 81.8095 44.8241 79.1423 43.7557C76.7065 42.7801 74.0848 43.0865 71.7677 44.5681C71.9587 42.4663 72.3144 40.5901 72.8288 38.9976C73.7654 38.9009 74.6956 38.7178 75.6091 38.4491C77.4686 38.0173 79.1868 37.3291 80.7381 36.4165C84.97 38.9448 94.2776 47.1456 95.2623 70.5397ZM57.1239 16.9153C58.1602 9.89463 64.0816 4.49639 71.209 4.49639C79.0641 4.49639 85.4549 11.0533 85.4549 19.1126C85.4549 25.6675 82.3116 30.9506 77.2433 33.2756V21.7142C77.2433 19.7123 76.4771 17.2566 72.8285 16.9244C72.7623 16.9183 72.6958 16.9153 72.6293 16.9153H57.1239ZM60.443 23.842C60.443 22.9748 60.5417 22.1278 60.7359 21.3099H72.5215C72.6571 21.3245 72.7562 21.3403 72.8271 21.3547C72.8385 21.4361 72.8484 21.5533 72.8484 21.7142V34.5685C72.3249 34.6455 71.7981 34.6845 71.2717 34.6848C71.2667 34.6848 71.2617 34.6848 71.257 34.6848C65.2934 34.6792 60.443 29.8174 60.443 23.842ZM57.5944 57.8029L62.7987 57.3819C63.2625 57.3447 63.7023 57.161 64.0553 56.8578L73.4479 48.7792L73.4493 48.7777C74.3575 47.9952 75.327 47.5938 76.2709 47.5938C76.691 47.5938 77.1062 47.6735 77.5084 47.8347C78.6694 48.2996 79.4939 49.3625 79.6093 50.542C79.7543 52.0265 78.7764 53.5312 76.8565 54.778L66.3902 61.5714H57.595V57.8029H57.5944ZM48.3085 58.5541L53.1999 58.1586V61.572H47.516C46.7792 61.572 46.5996 60.9597 46.5785 60.4461C46.5665 60.1549 46.594 58.6947 48.3085 58.5541ZM43.108 57.0371C42.4462 58.1223 42.1371 59.3917 42.1878 60.626C42.201 60.9456 42.2417 61.2535 42.2985 61.5535C42.2985 61.5597 42.295 61.5658 42.2962 61.5717H31.6509V53.23L43.1165 57.0201C43.113 57.026 43.1112 57.0315 43.108 57.0371ZM47.5283 65.9662H67.0403C67.4648 65.9662 67.8806 65.8432 68.2365 65.612L69.2312 64.9663C69.7096 67.081 70.2545 69.1388 70.8481 71.0823C66.3668 72.4051 59.2538 76.6798 59.2538 90.4645V102.061C57.7122 102.372 55.8885 103.091 54.363 104.687C52.7549 106.37 51.8364 108.65 51.6161 111.481H47.1835C42.7169 98.6082 41.0183 84.9102 47.5283 65.9662ZM51.15 121.471C50.3379 119.604 49.5551 117.743 48.818 115.875H71.6326C74.5896 115.875 76.0887 114.529 76.0887 111.875V104.037V95.7456H93.4321C94.6459 95.7456 95.6294 94.7621 95.6294 93.5483C95.6294 92.3346 94.6459 91.3511 93.4321 91.3511H76.1045C76.1326 90.103 76.2126 89.0823 76.4414 88.4794C76.5524 88.1861 76.6485 87.933 77.8553 87.933L85.7443 87.9248C90.6853 87.9201 94.2199 86.7248 96.5505 84.2703C96.6583 84.1566 96.7603 84.0374 96.8625 83.9188H110.839H126.546V89.9577C126.546 90.713 125.91 91.3511 125.156 91.3511H103.282C102.068 91.3511 101.084 92.3346 101.084 93.5483C101.084 94.7621 102.068 95.7456 103.282 95.7456H123.865C125.602 98.9691 127.164 102.98 127.071 109.317C122.724 103.279 115.687 99.3963 107.7 99.3963C101.285 99.3963 95.2667 101.912 90.7518 106.481C86.7454 110.535 84.3393 115.796 83.8441 121.479L51.15 121.471ZM107.974 137.504C101.105 137.504 95.3115 132.554 93.91 125.874H122.037C120.635 132.554 114.842 137.504 107.974 137.504ZM124.533 121.479H91.4145H88.2577C89.3364 111.544 97.6438 103.791 107.7 103.791C116.528 103.791 123.942 109.612 126.398 117.762C126.406 117.788 126.414 117.813 126.422 117.839C126.77 119.008 127.015 120.225 127.148 121.479H124.533ZM145.605 75.9535C145.605 77.9226 144.006 79.5242 142.039 79.5242H113.036V68.1772H145.605V75.9535ZM145.605 63.7827H113.036V59.1096H145.605V63.7827ZM145.605 54.715H113.036V50.2467C113.036 48.2776 114.636 46.676 116.602 46.676H142.039C144.006 46.676 145.605 48.2779 145.605 50.2467V54.715Z" fill="black"/>
</svg>
